<?xml version="1.0" standalone="no"?>
<!DOCTYPE svg PUBLIC "-//W3C//DTD SVG 20010904//EN"
 "http://www.w3.org/TR/2001/REC-SVG-20010904/DTD/svg10.dtd">
<svg version="1.0" xmlns="http://www.w3.org/2000/svg"
 width="412.000000pt" height="95.000000pt" viewBox="0 0 412.000000 95.000000"
 preserveAspectRatio="xMidYMid meet">

<g transform="translate(0.000000,95.000000) scale(0.100000,-0.100000)"
fill="#000000" stroke="none">
<path d="M2520 853 c2 -51 -10 -505 -16 -588 -6 -97 -5 -113 10 -128 20 -19
110 -24 121 -6 4 6 8 82 9 171 1 145 3 161 20 174 49 36 138 24 150 -19 3 -12
6 -90 6 -173 0 -135 2 -153 19 -168 18 -16 31 -16 92 0 13 4 17 29 24 142 5
75 8 159 7 186 -1 64 -37 133 -88 169 -36 26 -45 27 -114 24 -41 -3 -82 -8
-91 -11 -22 -10 -29 19 -29 130 0 74 -3 93 -16 98 -22 9 -104 7 -104 -1z"/>
<path d="M250 819 c-30 -4 -65 -4 -77 -2 -26 6 -40 -17 -41 -70 -1 -21 -4 -42
-8 -48 -3 -5 -5 -134 -5 -287 1 -228 4 -279 16 -291 11 -12 42 -14 148 -12
173 3 199 10 254 63 59 57 76 91 75 153 -1 61 -15 101 -49 137 -25 26 -25 28
-10 60 25 56 28 74 17 124 -17 76 -48 133 -84 151 -37 19 -158 31 -236 22z
m173 -150 c9 -12 17 -37 17 -55 0 -27 -5 -36 -23 -43 -38 -15 -115 -24 -142
-17 -24 6 -25 10 -25 78 l0 71 78 -7 c60 -5 81 -11 95 -27z m-183 -173 c0 -2
-11 -11 -25 -20 -24 -16 -25 -16 -25 4 0 15 7 20 25 20 14 0 25 -2 25 -4z
m222 -103 c13 -12 18 -31 18 -74 0 -75 -10 -81 -138 -77 l-97 3 -3 73 c-3 67
-1 73 20 82 13 5 59 9 102 9 61 1 84 -3 98 -16z"/>
<path d="M919 661 c-14 -5 -36 -14 -50 -21 -16 -9 -52 -13 -106 -11 l-83 3 0
-256 c0 -181 3 -257 12 -262 15 -10 102 -6 132 6 25 9 25 10 19 107 -14 212
-7 233 82 274 l66 30 -3 67 c-3 73 -11 80 -69 63z"/>
<path d="M1115 629 c-48 -28 -59 -79 -26 -120 19 -24 19 -24 67 -6 27 9 59 17
71 17 23 0 58 -39 45 -52 -4 -4 -40 -14 -80 -23 -126 -26 -158 -53 -169 -142
-7 -64 15 -112 69 -149 54 -38 147 -45 203 -16 l39 19 44 -23 c25 -13 53 -24
63 -24 24 0 49 37 49 72 0 22 -7 32 -34 45 -42 19 -45 34 -32 145 13 123 -1
185 -53 226 -35 28 -46 31 -137 37 -67 4 -105 2 -119 -6z m164 -283 c21 -25 9
-79 -19 -93 -46 -21 -74 -24 -95 -10 -19 15 -19 15 0 51 18 32 63 65 91 66 6
0 17 -6 23 -14z m-149 -141 c-7 -8 -17 -15 -23 -15 -6 0 -2 7 9 15 25 19 30
19 14 0z"/>
<path d="M1545 617 c-23 -35 -24 -272 -2 -347 33 -112 85 -160 170 -160 26 0
64 7 83 15 32 13 38 13 57 0 42 -30 122 -12 132 28 7 26 -12 396 -22 435 -5
21 -10 23 -62 20 l-56 -3 0 -167 c0 -99 -4 -171 -10 -177 -11 -11 -50 -16 -97
-13 -48 3 -57 33 -62 192 -3 80 -8 153 -12 163 -15 40 -95 49 -119 14z"/>
<path d="M3230 633 c-14 -2 -46 -11 -72 -20 -44 -15 -49 -21 -73 -77 -63 -152
-51 -246 46 -351 31 -33 52 -46 91 -55 57 -14 172 -8 234 12 36 12 39 16 42
54 5 63 -11 71 -110 52 -78 -15 -84 -14 -129 4 -36 15 -50 28 -58 51 -6 16
-11 33 -11 36 0 3 55 6 122 6 182 0 208 12 208 94 0 61 -39 134 -89 166 -36
23 -139 37 -201 28z m107 -124 c72 -27 33 -47 -79 -41 -64 4 -72 14 -30 36 32
18 71 20 109 5z"/>
<path d="M3584 620 c-20 -8 -21 -18 -28 -193 -8 -194 -3 -269 19 -287 7 -6 39
-12 72 -13 l58 -2 -3 169 c-4 185 -6 178 60 196 45 13 81 1 104 -35 13 -20 18
-60 23 -176 5 -116 10 -152 21 -159 25 -16 84 -11 108 10 22 18 22 23 19 167
-6 213 -33 271 -144 313 -69 26 -112 25 -167 -2 -41 -20 -47 -20 -63 -6 -25
21 -54 28 -79 18z m53 -142 c-3 -7 -5 -2 -5 12 0 14 2 19 5 13 2 -7 2 -19 0
-25z"/>
<path d="M2213 599 c-49 -24 -99 -77 -120 -127 -8 -18 -17 -62 -20 -97 -5 -57
-3 -70 23 -120 35 -69 69 -100 136 -120 59 -17 210 -20 239 -5 22 12 25 50 8
99 -6 17 -12 31 -12 31 -1 0 -20 -7 -42 -15 -68 -24 -119 -19 -159 15 -63 56
-72 149 -20 217 21 28 32 33 65 33 22 0 52 -6 67 -14 15 -8 44 -17 63 -21 l36
-7 7 48 c13 98 6 104 -127 104 -83 0 -110 -4 -144 -21z m234 -41 c-3 -8 -6 -5
-6 6 -1 11 2 17 5 13 3 -3 4 -12 1 -19z"/>
</g>
</svg>
