<svg width="32" height="30" viewBox="0 0 32 30" fill="none" xmlns="http://www.w3.org/2000/svg">
<g clip-path="url(#clip0_147:69)">
<path d="M17.4999 5.39061C17.3484 5.4492 17.1788 5.73045 17.1788 5.91795C17.1788 6.09373 17.2576 6.2285 18.2389 7.70506C18.7235 8.43163 19.1172 9.03514 19.1172 9.04686C19.1172 9.05858 17.8754 11.2383 16.355 13.8926C14.8346 16.5469 12.9628 19.8223 12.1935 21.164L10.7942 23.6133H9.83105C9.08598 23.6133 8.87396 23.5957 8.89819 23.543C8.91031 23.5019 10.7821 20.2207 13.0476 16.2598L17.1667 9.05272L17.6634 9.02342L18.1541 8.99412L17.4393 7.92772L16.7245 6.85545H13.4656C10.3823 6.85545 10.1945 6.86131 9.98249 6.96678C9.54029 7.18944 9.36462 7.47655 9.36462 7.99217C9.36462 8.23241 9.40097 8.35545 9.52212 8.52538C9.64327 8.70116 9.6675 8.77733 9.61904 8.87108C9.58875 8.94139 7.58371 12.2695 5.16676 16.2715C2.74375 20.2793 0.7266 23.6308 0.672083 23.7246C0.472185 24.1113 0.647853 24.5566 1.04765 24.668C1.2112 24.7148 5.35455 24.7265 15.7129 24.7148L30.154 24.6973L30.3055 24.5273C30.4266 24.3867 30.4508 24.3105 30.4327 24.0879C30.4145 23.8418 29.942 23.1152 25.4897 16.4531C22.7881 12.3984 20.571 9.0703 20.571 9.05272C20.571 9.03514 20.9103 9.02342 21.3222 9.02342C21.7401 9.02342 22.152 8.99412 22.249 8.95897C22.4367 8.88866 22.7275 8.64256 22.8244 8.46678C23.1697 7.85155 22.8123 7.02538 22.1157 6.84373L21.8492 6.77342L22.0248 6.46873C22.2732 6.05858 22.2732 5.73631 22.0309 5.50194C21.8128 5.291 21.5099 5.27342 21.2737 5.45506C21.1889 5.51952 20.9527 5.86522 20.7467 6.21678L20.3772 6.85545H19.729H19.0809L18.6811 6.25194C18.457 5.92381 18.2086 5.58983 18.1299 5.51952C17.9663 5.37303 17.6877 5.31444 17.4999 5.39061ZM22.0915 7.44139C22.152 7.47655 22.249 7.58202 22.3035 7.68163C22.5458 8.1328 22.0491 8.62498 21.5645 8.40233C21.2071 8.23827 21.1344 7.82811 21.413 7.55272C21.6008 7.37108 21.8673 7.33006 22.0915 7.44139ZM12.6357 9.08202C12.6357 9.14647 4.49438 23.4082 4.38534 23.5371C4.31265 23.625 2.19252 23.6484 2.22887 23.5664C2.23492 23.5371 4.22179 20.2558 6.63874 16.2715L11.0304 9.02342H11.83C12.3449 9.02342 12.6357 9.04686 12.6357 9.08202ZM15.8765 9.08202C15.8765 9.09959 14.0107 12.375 11.7331 16.3652L7.58371 23.6133H6.62057C5.86338 23.6133 5.66348 23.5957 5.68165 23.5371C5.69982 23.4668 13.6897 9.46287 13.8896 9.15233C13.9744 9.02342 13.9926 9.02342 14.9254 9.03514C15.4464 9.04686 15.8765 9.06444 15.8765 9.08202ZM24.357 16.875C26.78 20.5019 28.7729 23.5019 28.7911 23.5371C28.8153 23.5957 28.1793 23.6133 25.726 23.6133H22.6366L22.6185 20.4023L22.6003 17.1973L22.461 16.9863C22.2126 16.5937 22.146 16.582 20.0077 16.582C18.1299 16.582 18.1056 16.582 17.8997 16.7168C17.4696 16.9922 17.4817 16.8926 17.4817 20.4316V23.6133H14.8709C12.4055 23.6133 12.2601 23.6074 12.3025 23.5137C12.4055 23.25 19.8744 10.2539 19.9168 10.2656C19.9411 10.2773 21.94 13.248 24.357 16.875Z" fill="#464646"/>
</g>
<defs>
<clipPath id="clip0_147:69">
<rect width="31.0145" height="30" fill="white" transform="translate(0.0966187)"/>
</clipPath>
</defs>
</svg>
