<svg width="26" height="24" viewBox="0 0 26 24" fill="none" xmlns="http://www.w3.org/2000/svg">
<path d="M1.88056 0.0451064C1.6485 0.0973287 1.35263 0.227884 1.11477 0.381287C0.891412 0.528162 0.470807 1.00143 0.340275 1.25274C-0.205062 2.31351 -0.0861318 3.55705 0.644851 4.42198C1.30332 5.20531 2.27216 5.45663 3.17138 5.07476C3.45275 4.95399 3.69061 4.78427 3.93427 4.52316C5.17868 3.19476 4.77838 0.896981 3.17718 0.178926C2.78849 0.00267601 2.29536 -0.0462823 1.88056 0.0451064Z" fill="#464646"/>
<path d="M7.40884 0.786C7.40014 0.808848 7.39723 1.65093 7.40014 2.65621L7.40884 4.48399L16.6273 4.49378L25.8429 4.50031V2.62357V0.746834H16.6331C9.2914 0.746834 7.41754 0.756625 7.40884 0.786Z" fill="#464646"/>
<path d="M1.88652 9.13505C0.732031 9.40921 -0.068569 10.5744 0.00684986 11.8767C0.0300557 12.2716 0.0851694 12.5066 0.244709 12.8722C0.540583 13.5609 1.08592 14.0668 1.75309 14.2626C2.07797 14.3605 2.5914 14.3605 2.91338 14.2626C3.74008 14.0146 4.35214 13.3357 4.5871 12.4087C4.64221 12.1966 4.65381 12.0758 4.65091 11.6972C4.65091 11.2729 4.64221 11.2174 4.55809 10.9302C4.31153 10.0881 3.75459 9.47123 3.0004 9.20032C2.84086 9.14157 2.71033 9.12526 2.40575 9.11546C2.1911 9.10894 1.95614 9.11873 1.88652 9.13505Z" fill="#464646"/>
<path d="M7.39429 11.7135V13.5739H16.6186H25.8429V11.7135V9.85308H16.6186H7.39429V11.7135Z" fill="#464646"/>
<path d="M1.88337 18.2902C1.41345 18.3947 0.984141 18.6656 0.644753 19.067C0.403991 19.351 0.256052 19.6186 0.142923 19.9614C-0.0862363 20.6761 -0.0398243 21.404 0.282159 22.109C0.389487 22.3473 0.467807 22.4615 0.694066 22.7128C0.917424 22.9674 1.01895 23.0555 1.23361 23.1795C1.63681 23.4113 1.88047 23.4766 2.33299 23.4766C2.78551 23.4766 3.02917 23.4113 3.43238 23.1763C3.64123 23.0555 3.75146 22.9641 3.96031 22.7291C4.32871 22.3179 4.53466 21.8936 4.62749 21.3518C4.83634 20.1245 4.20688 18.8582 3.17131 18.4175C2.7652 18.2478 2.28948 18.1989 1.88337 18.2902Z" fill="#464646"/>
<path d="M7.40884 19.0311C7.40014 19.054 7.39723 19.896 7.40014 20.9013L7.40884 22.7291L16.6273 22.7389L25.8429 22.7454V20.8687V18.9919H16.6331C9.2914 18.9919 7.41754 19.0017 7.40884 19.0311Z" fill="#464646"/>
</svg>
