<?xml version="1.0" standalone="no"?>
<!DOCTYPE svg PUBLIC "-//W3C//DTD SVG 20010904//EN"
 "http://www.w3.org/TR/2001/REC-SVG-20010904/DTD/svg10.dtd">
<svg version="1.0" xmlns="http://www.w3.org/2000/svg"
 width="499.000000pt" height="174.000000pt" viewBox="0 0 499.000000 174.000000"
 preserveAspectRatio="xMidYMid meet">

<g transform="translate(0.000000,174.000000) scale(0.100000,-0.100000)"
fill="#EBEBEB" stroke="none">
<path d="M3078 1445 c-45 -74 -60 -134 -56 -223 l3 -81 -35 -6 c-72 -13 -70
-10 -70 -90 0 -79 4 -85 61 -85 29 0 29 0 30 -62 6 -232 3 -352 -8 -367 -18
-23 -16 -46 7 -91 29 -57 57 -72 127 -68 l58 3 7 95 c4 52 3 120 -2 150 -14
80 -7 329 9 339 23 14 105 0 121 -21 17 -20 30 -15 30 13 0 9 7 20 15 23 13 5
15 19 11 73 -5 77 -9 80 -103 82 -59 1 -70 16 -58 79 11 67 15 72 61 83 57 15
74 39 74 106 0 73 -23 88 -118 78 -37 -4 -81 -13 -99 -20 -31 -13 -32 -12 -35
11 -3 23 -5 21 -30 -21z m74 -137 c-3 -39 -8 -48 -23 -48 -13 0 -19 7 -19 23
0 38 11 66 29 70 9 2 16 3 17 3 0 -1 -1 -22 -4 -48z m-25 -150 c-3 -7 -5 -2
-5 12 0 14 2 19 5 13 2 -7 2 -19 0 -25z m49 -75 c-11 -11 -19 6 -11 24 8 17 8
17 12 0 3 -10 2 -21 -1 -24z m-121 7 c-3 -5 -12 -10 -18 -10 -7 0 -6 4 3 10
19 12 23 12 15 0z m237 -78 c-19 -6 -44 6 -37 18 4 7 14 6 28 -2 14 -7 17 -13
9 -16z m-92 4 c0 -2 -7 -6 -15 -10 -8 -3 -15 -1 -15 4 0 6 7 10 15 10 8 0 15
-2 15 -4z m-67 -153 c-7 -2 -19 -2 -25 0 -7 3 -2 5 12 5 14 0 19 -2 13 -5z
m-43 -33 c0 -11 9 -28 20 -37 14 -12 20 -30 20 -58 l0 -41 -36 4 c-26 3 -34 8
-30 19 3 8 6 41 6 74 0 33 4 59 10 59 6 0 10 -9 10 -20z m60 -326 c0 -62 -7
-74 -44 -74 -27 0 -35 6 -48 33 -14 28 -14 37 -2 58 7 13 13 39 14 57 l0 33
40 -32 c35 -29 40 -37 40 -75z"/>
<path d="M1110 1353 c-74 -79 -176 -213 -186 -245 -8 -28 -95 -148 -106 -148
-4 0 -8 33 -8 74 0 40 -5 98 -12 127 -7 30 -11 89 -9 132 1 49 -2 84 -10 93
-8 10 -34 14 -89 14 l-78 0 -7 -197 c-5 -122 -3 -289 4 -433 6 -129 11 -270
11 -312 0 -93 6 -98 108 -98 51 0 73 4 83 16 10 12 13 62 12 207 -1 105 -5
219 -8 252 l-7 60 70 -100 c38 -55 79 -119 91 -143 12 -23 44 -67 71 -97 28
-31 50 -60 50 -65 0 -12 27 -45 92 -115 l47 -50 16 22 c12 17 26 23 55 23 47
0 65 24 54 73 -12 59 -36 91 -141 194 -82 80 -113 118 -144 178 -21 42 -39 84
-39 95 0 18 174 251 249 335 20 22 47 57 60 78 l24 39 -20 26 c-18 24 -27 27
-95 30 l-75 3 -63 -68z m-133 -455 c-3 -8 -6 -5 -6 6 -1 11 2 17 5 13 3 -3 4
-12 1 -19z m304 -413 c6 -11 -1 -6 -15 10 -14 17 -26 35 -26 40 1 11 27 -20
41 -50z m16 -47 c-3 -8 -6 -5 -6 6 -1 11 2 17 5 13 3 -3 4 -12 1 -19z"/>
<path d="M1580 1413 c-38 -14 -50 -36 -50 -89 0 -45 4 -56 23 -68 33 -20 111
-26 143 -10 14 8 31 11 37 7 21 -13 119 -22 143 -13 22 9 24 15 24 84 0 73 0
74 -30 86 -33 14 -114 7 -136 -11 -10 -8 -19 -7 -36 5 -22 15 -87 20 -118 9z"/>
<path d="M4477 1146 c-32 -13 -64 -30 -73 -37 -11 -9 -18 -9 -26 -1 -8 8 -50
12 -116 12 l-103 0 3 -371 c4 -434 -5 -404 113 -393 72 7 116 19 125 34 3 4 2
66 -3 137 -10 182 -9 241 5 298 15 58 45 83 142 115 l63 21 6 78 c7 116 3 131
-42 131 -20 0 -62 -11 -94 -24z m63 -46 c0 -5 -2 -10 -4 -10 -3 0 -8 5 -11 10
-3 6 -1 10 4 10 6 0 11 -4 11 -10z m-305 -679 c3 -5 1 -12 -5 -16 -5 -3 -10 1
-10 9 0 18 6 21 15 7z"/>
<path d="M1553 1120 c-45 -14 -73 -54 -73 -104 0 -89 38 -115 121 -84 83 32
119 33 152 8 45 -35 34 -62 -33 -79 -198 -49 -214 -55 -250 -88 -30 -26 -41
-47 -54 -98 -20 -79 -13 -131 23 -185 76 -113 248 -154 377 -88 50 25 51 25
76 7 31 -23 102 -49 133 -49 31 0 56 31 62 78 7 53 -8 77 -59 94 l-43 15 2 79
c0 43 3 131 5 194 5 168 -12 210 -112 276 -31 20 -51 23 -165 28 -74 3 -144 1
-162 -4z m238 -427 c5 -15 9 -45 7 -67 -3 -37 -7 -43 -48 -63 -52 -27 -121
-30 -144 -7 -21 21 -20 26 12 79 29 49 86 85 135 85 21 0 30 -7 38 -27z m-234
-207 c-12 -13 -25 -22 -29 -20 -14 9 -9 19 15 30 35 18 37 16 14 -10z m317 8
c3 -8 2 -12 -4 -9 -6 3 -10 10 -10 16 0 14 7 11 14 -7z"/>
<path d="M2174 1104 c-15 -23 -19 -45 -17 -109 2 -44 -1 -103 -7 -132 -12 -65
3 -216 30 -303 26 -84 76 -151 132 -179 65 -31 178 -30 243 3 l48 25 19 -25
c16 -19 28 -24 67 -24 116 0 136 28 127 182 -3 57 -11 193 -17 303 -6 109 -15
210 -20 222 -8 21 -15 23 -76 23 -38 0 -74 -4 -82 -9 -12 -8 -13 -48 -7 -249
8 -272 9 -266 -68 -277 -56 -9 -120 2 -145 23 -31 28 -41 78 -42 216 -1 184
-11 293 -29 310 -8 8 -43 18 -76 22 -60 6 -63 6 -80 -22z m485 -575 c-19 -12
-24 -2 -8 17 9 11 14 13 17 4 3 -7 -2 -16 -9 -21z"/>
<path d="M3695 1119 c-27 -4 -77 -18 -109 -31 -58 -22 -60 -25 -93 -95 -72
-157 -81 -298 -25 -408 35 -69 111 -159 154 -181 55 -29 191 -37 308 -18 134
22 160 38 160 100 0 69 -12 84 -68 84 -26 -1 -74 -7 -107 -15 -83 -20 -112
-19 -181 9 -49 20 -62 30 -76 63 -10 21 -18 47 -18 58 0 20 4 21 158 17 181
-5 262 7 298 44 21 20 24 33 24 98 0 61 -4 82 -22 109 -13 19 -31 49 -40 65
-21 40 -102 90 -153 96 -90 11 -163 13 -210 5z m172 -185 c21 -11 39 -27 41
-36 3 -16 -8 -18 -127 -18 -72 0 -131 4 -131 8 0 15 47 53 76 62 39 12 95 6
141 -16z m-277 -84 c0 -5 -2 -10 -4 -10 -3 0 -8 5 -11 10 -3 6 -1 10 4 10 6 0
11 -4 11 -10z"/>
</g>
</svg>
