<?xml version="1.0" standalone="no"?>
<!DOCTYPE svg PUBLIC "-//W3C//DTD SVG 20010904//EN"
 "http://www.w3.org/TR/2001/REC-SVG-20010904/DTD/svg10.dtd">
<svg version="1.0" xmlns="http://www.w3.org/2000/svg"
 width="499.000000pt" height="174.000000pt" viewBox="0 0 499.000000 174.000000"
 preserveAspectRatio="xMidYMid meet">

<g transform="translate(0.000000,183.000000) scale(0.100000,-0.100000)"
fill="#FFF" stroke="none">
<path d="M1008 1784 c-78 -24 -79 -29 -72 -261 l7 -201 -44 -13 c-65 -18 -218
-17 -229 1 -6 8 -10 10 -10 4 0 -8 -25 -12 -70 -12 -39 -1 -75 -4 -80 -7 -6
-3 -53 -3 -105 1 l-95 7 0 116 c0 64 -7 152 -14 196 -10 55 -11 85 -4 98 8 15
5 24 -13 43 -20 22 -31 24 -109 24 -55 0 -93 -5 -104 -13 -17 -12 -17 -34 -7
-402 6 -215 11 -485 11 -601 l0 -210 32 -32 c63 -60 151 -79 188 -42 24 24 24
14 5 265 -8 110 -15 227 -15 259 l0 59 118 -8 c64 -5 194 -9 287 -10 94 0 180
-4 192 -9 13 -4 26 -18 29 -30 3 -12 6 -114 7 -227 2 -138 6 -211 14 -225 9
-16 35 -27 108 -44 101 -23 138 -21 154 8 15 28 18 572 3 702 -7 63 -12 126
-12 140 1 86 -2 124 -17 194 -14 73 -14 130 3 184 5 18 3 22 -17 22 -12 0 -30
6 -38 14 -26 23 -53 25 -103 10z m-728 -554 c0 -4 -7 -10 -15 -14 -10 -4 -15
1 -15 14 0 13 5 18 15 14 8 -4 15 -10 15 -14z m723 -142 c-21 -40 -31 -43 -60
-14 -16 17 -21 26 -12 26 8 0 25 9 38 19 34 26 53 8 34 -31z m-769 -556 c-1
-2 -13 0 -28 4 l-26 6 22 24 23 23 6 -27 c3 -15 4 -28 3 -30z m893 31 c-3 -3
-11 -2 -17 2 -9 6 -9 10 1 16 14 8 27 -7 16 -18z"/>
<path d="M2710 1469 c-19 -6 -64 -15 -100 -20 -179 -25 -322 -172 -323 -331 0
-75 16 -116 72 -183 47 -57 49 -70 21 -173 -18 -66 -18 -77 -5 -108 14 -33 13
-36 -15 -77 -40 -57 -70 -145 -70 -207 0 -53 21 -103 62 -151 41 -48 202 -115
332 -139 84 -16 256 -9 307 13 39 16 194 121 205 139 4 5 17 -1 33 -16 32 -31
176 -99 256 -121 85 -23 248 -31 329 -15 58 11 81 23 169 85 107 77 138 113
156 182 7 23 16 45 21 48 5 3 2 14 -8 24 -9 10 -25 32 -34 49 -38 71 -229 192
-303 192 -24 0 -56 7 -72 15 -15 8 -46 18 -68 22 -38 7 -39 7 -10 11 17 2 37
9 45 16 8 7 35 18 60 25 115 33 152 71 181 188 27 106 24 203 -6 273 l-23 55
21 7 c12 3 36 6 53 7 37 1 74 34 74 65 0 13 -10 36 -22 51 -18 23 -27 26 -55
22 l-34 -6 21 28 20 29 -23 6 c-40 11 -78 6 -127 -15 -46 -20 -51 -20 -97 -5
-77 24 -115 28 -163 16 -25 -6 -73 -16 -107 -20 -168 -24 -306 -162 -320 -320
-7 -75 7 -115 68 -191 27 -34 49 -67 49 -74 0 -7 -9 -42 -20 -77 -23 -72 -25
-107 -9 -142 10 -21 7 -31 -21 -74 l-32 -51 -52 41 c-73 58 -161 98 -217 98
-29 0 -51 6 -59 15 -7 8 -24 15 -39 16 -14 0 -35 4 -46 9 -17 7 -15 9 13 9 17
1 32 5 32 11 0 5 32 19 71 30 89 27 142 72 162 138 42 137 45 236 9 316 -12
27 -22 52 -22 57 0 4 21 11 48 14 68 10 92 28 92 70 0 47 -32 79 -71 71 -33
-6 -36 0 -12 26 15 17 15 20 3 28 -26 16 -89 11 -132 -11 -40 -21 -44 -21 -93
-5 -69 22 -133 27 -175 15z m-45 -119 c3 -5 -3 -10 -15 -10 -12 0 -18 5 -15
10 3 6 10 10 15 10 5 0 12 -4 15 -10z m869 1 c3 -5 -3 -11 -15 -14 -16 -4 -18
-3 -8 9 13 16 16 17 23 5z m-744 -103 c57 -39 75 -72 75 -138 0 -103 -61 -155
-182 -155 -97 0 -108 11 -107 108 0 79 24 148 65 185 32 30 104 30 149 0z
m878 2 c48 -29 72 -75 72 -139 0 -66 -26 -112 -77 -136 -68 -32 -165 -32 -198
1 -23 24 -20 147 6 204 33 73 55 90 113 90 33 0 62 -7 84 -20z m-1301 -112
c-3 -8 -6 -5 -6 6 -1 11 2 17 5 13 3 -3 4 -12 1 -19z m878 13 c3 -5 1 -12 -5
-16 -5 -3 -10 1 -10 9 0 18 6 21 15 7z m-701 -230 c10 -11 32 -23 50 -27 19
-4 25 -9 16 -12 -94 -31 -120 -44 -109 -58 9 -11 8 -14 -9 -14 -17 0 -20 8
-24 55 -3 32 -12 62 -22 74 -17 18 -16 19 13 26 17 4 34 12 38 18 4 7 11 1 18
-15 5 -14 19 -35 29 -47z m851 34 c11 -21 31 -41 54 -52 l38 -18 -56 -21 c-38
-15 -56 -27 -55 -38 1 -9 -6 -16 -16 -16 -16 0 -18 6 -13 33 3 23 -1 46 -15
73 l-20 39 31 16 c18 9 33 17 34 18 1 1 9 -15 18 -34z m-827 -204 c24 -54 69
-88 141 -106 36 -8 93 -25 126 -35 33 -11 78 -20 99 -20 24 0 56 -10 83 -26
43 -25 44 -27 28 -45 -10 -10 -15 -27 -12 -39 8 -29 -27 -26 -41 4 -18 40
-189 86 -321 86 l-75 0 35 26 34 26 -75 -5 c-41 -4 -84 -7 -94 -9 -10 -2 -21
3 -23 10 -3 8 5 12 24 12 66 0 98 63 48 96 -20 13 -22 19 -12 35 16 25 20 24
35 -10z m870 22 c-6 -16 43 -84 72 -102 17 -10 67 -26 111 -36 44 -9 93 -23
107 -31 15 -8 46 -14 70 -14 34 0 109 -26 131 -46 1 -1 -4 -13 -13 -25 -11
-16 -12 -27 -5 -41 8 -15 6 -18 -16 -18 -14 0 -25 6 -25 13 0 42 -138 86 -293
94 l-99 6 29 23 28 23 -56 1 c-31 0 -71 -5 -89 -11 -26 -9 -34 -9 -41 2 -6 10
-2 15 14 17 50 6 67 13 77 32 15 28 5 55 -26 69 -26 11 -26 12 -9 31 18 20 37
27 33 13z m-631 -287 c96 -21 122 -32 135 -60 6 -15 22 -28 39 -31 37 -8 36
-16 -3 -40 -28 -17 -55 -20 -173 -23 l-140 -2 -60 32 c-52 29 -60 37 -63 65
-3 28 2 36 30 53 40 24 134 27 235 6z m905 -8 c75 -18 90 -25 101 -47 7 -15
26 -31 45 -37 27 -8 31 -13 19 -22 -38 -32 -89 -42 -206 -42 -105 0 -127 3
-175 24 -90 40 -110 102 -43 131 47 21 159 18 259 -7z m-542 -40 c0 -10 -6
-18 -12 -18 -7 0 -25 -6 -39 -14 -25 -13 -28 -12 -38 11 -15 32 -14 33 8 33
10 0 24 7 31 15 15 18 50 -1 50 -27z m867 20 c34 -38 38 -51 16 -44 -23 7 -74
-9 -85 -27 -5 -7 -8 -2 -8 14 0 14 -5 30 -12 37 -9 9 -7 12 9 12 11 0 26 7 33
15 17 20 23 19 47 -7z m23 -126 c0 -15 -11 -21 -27 -15 -12 5 -12 7 -1 14 17
11 28 11 28 1z m-890 -17 c0 -8 -2 -15 -4 -15 -2 0 -6 7 -10 15 -3 8 -1 15 4
15 6 0 10 -7 10 -15z m-584 -33 c-4 -3 -14 2 -24 12 -16 18 -16 18 6 6 13 -6
21 -14 18 -18z m884 3 c0 -12 -29 -3 -34 10 -4 13 -2 14 14 5 11 -6 20 -13 20
-15z m-617 -82 c-7 -2 -19 -2 -25 0 -7 3 -2 5 12 5 14 0 19 -2 13 -5z m880 0
c-7 -2 -21 -2 -30 0 -10 3 -4 5 12 5 17 0 24 -2 18 -5z"/>
<path d="M1263 1439 c-64 -19 -63 -69 2 -199 18 -36 58 -132 90 -215 93 -246
106 -275 157 -383 l48 -103 -10 -67 c-6 -37 -36 -129 -66 -206 -54 -136 -55
-140 -42 -183 12 -40 15 -44 38 -39 14 3 49 10 79 16 32 5 64 19 79 32 39 37
102 135 136 212 17 39 41 86 54 103 17 25 52 157 52 200 0 1 13 17 28 35 28
33 122 291 122 336 0 11 4 24 10 27 14 9 59 109 82 185 24 77 23 76 43 60 13
-11 15 -6 15 37 0 103 -38 143 -137 143 -69 0 -95 -17 -111 -70 -46 -154 -79
-250 -129 -367 -53 -125 -58 -132 -74 -117 -21 19 -183 346 -229 462 -25 63
-39 86 -61 97 -31 17 -126 18 -176 4z m122 -139 c3 -5 1 -10 -4 -10 -6 0 -11
5 -11 10 0 6 2 10 4 10 3 0 8 -4 11 -10z m610 -50 c-3 -5 -11 -10 -16 -10 -6
0 -7 5 -4 10 3 6 11 10 16 10 6 0 7 -4 4 -10z m-475 -400 c0 -5 -4 -10 -10
-10 -5 0 -10 5 -10 10 0 6 5 10 10 10 6 0 10 -4 10 -10z m241 -123 c-10 -9
-11 -8 -5 6 3 10 9 15 12 12 3 -3 0 -11 -7 -18z m-143 -22 c-15 -45 -34 -51
-53 -15 -22 43 -19 50 24 50 l39 0 -10 -35z m62 -160 c-7 -8 -17 -12 -23 -8
-6 4 -3 9 9 14 27 11 28 11 14 -6z"/>
<path d="M4335 1434 c-38 -9 -85 -24 -103 -35 -18 -10 -41 -19 -51 -19 -24 0
-92 -146 -122 -260 -44 -171 -25 -278 76 -429 86 -131 150 -168 312 -182 89
-8 123 -6 225 11 176 30 198 46 198 140 0 41 -5 56 -25 75 -30 31 -41 31 -203
-1 l-133 -27 -42 20 c-23 11 -56 26 -74 32 -46 18 -64 43 -79 108 -7 31 -12
58 -11 59 1 1 25 -2 52 -6 72 -12 319 -12 395 1 77 12 130 40 148 76 17 38 16
200 -2 210 -7 4 -25 31 -39 59 -32 64 -71 111 -100 120 -12 4 -34 15 -50 26
-21 15 -55 22 -150 28 -148 11 -136 12 -222 -6z m238 -221 c43 -14 88 -55 74
-69 -7 -7 -283 -6 -313 2 l-25 6 23 25 c57 61 127 72 241 36z m-443 -197 c0
-3 -4 -8 -10 -11 -5 -3 -10 -1 -10 4 0 6 5 11 10 11 6 0 10 -2 10 -4z"/>
</g>
</svg>
