<svg width="23" height="23" viewBox="0 0 23 23" fill="none" xmlns="http://www.w3.org/2000/svg">
<path d="M22.2652 20.9494L16.7911 15.2561C18.1986 13.5829 18.9697 11.4778 18.9697 9.28625C18.9697 4.1659 14.8038 0 9.68353 0C4.56313 0 0.397278 4.1659 0.397278 9.28625C0.397278 14.4066 4.56318 18.5725 9.68353 18.5725C11.6058 18.5725 13.4375 17.9927 15.0037 16.8921L20.5193 22.6286C20.7498 22.868 21.0599 23 21.3922 23C21.7068 23 22.0051 22.8801 22.2316 22.6621C22.7129 22.199 22.7283 21.431 22.2652 20.9494ZM9.68353 2.4225C13.4682 2.4225 16.5472 5.50151 16.5472 9.28625C16.5472 13.071 13.4682 16.15 9.68353 16.15C5.89878 16.15 2.81978 13.071 2.81978 9.28625C2.81978 5.50151 5.89878 2.4225 9.68353 2.4225Z" fill="#9B9B9B"/>
</svg>