<?xml version="1.0" standalone="no"?>
<!DOCTYPE svg PUBLIC "-//W3C//DTD SVG 20010904//EN"
 "http://www.w3.org/TR/2001/REC-SVG-20010904/DTD/svg10.dtd">
<svg version="1.0" xmlns="http://www.w3.org/2000/svg"
 width="18pt" height="18pt" viewBox="0 0 512.000000 512.000000"
 preserveAspectRatio="xMidYMid meet">

<g transform="translate(0.000000,512.000000) scale(0.100000,-0.100000)"
fill="rgba(255, 255, 255, 0.8)" stroke="none">
<path d="M395 5106 c-181 -44 -346 -213 -384 -394 -55 -261 112 -528 374 -598
74 -20 4276 -20 4350 0 262 70 429 337 374 598 -39 186 -211 358 -397 397 -80
17 -4248 14 -4317 -3z"/>
<path d="M381 3054 c-216 -58 -381 -271 -381 -494 0 -177 113 -366 269 -449
123 -65 -39 -61 2291 -61 2330 0 2168 -4 2291 61 156 83 269 272 269 449 0
177 -113 366 -269 449 -123 65 40 61 -2296 60 -1818 0 -2128 -2 -2174 -15z"/>
<path d="M380 1006 c-258 -72 -423 -339 -369 -598 39 -186 211 -358 397 -397
75 -16 4229 -16 4304 0 186 39 358 211 397 397 55 261 -112 528 -374 598 -71
19 -4286 19 -4355 0z"/>
</g>
</svg>
