<svg width="26" height="26" viewBox="0 0 30 30" fill="none" xmlns="http://www.w3.org/2000/svg">
<path d="M14.1855 0.0878925C13.1426 0.316408 12.1465 1.09571 11.6719 2.05664C11.25 2.91211 11.25 2.87696 11.25 7.30664V11.25H7.3125C2.87695 11.25 2.91211 11.25 2.05664 11.6719C0.826172 12.2754 0 13.6172 0 15C0 16.3828 0.826172 17.7246 2.05664 18.3281C2.91211 18.75 2.87695 18.75 7.3125 18.75H11.25V22.6875C11.25 27.123 11.25 27.0879 11.6719 27.9434C12.2754 29.1738 13.6172 30 15 30C16.3828 30 17.7246 29.1738 18.3281 27.9434C18.75 27.0879 18.75 27.123 18.75 22.6875V18.75H22.6934C27.123 18.75 27.0879 18.75 27.9434 18.3281C29.1738 17.7246 30 16.3828 30 15C30 13.6172 29.1738 12.2754 27.9434 11.6719C27.0879 11.25 27.123 11.25 22.6934 11.25H18.75V7.30664C18.75 2.87696 18.75 2.91211 18.3281 2.05664C17.5898 0.556643 15.8496 -0.269529 14.1855 0.0878925Z" fill="#EEEEEE"/>
</svg>
