<svg width="30" height="30" viewBox="0 0 30 30" fill="none" xmlns="http://www.w3.org/2000/svg">
<g clip-path="url(#clip0)">
<g filter="url(#filter0_dd)">
<path d="M16.834 5.39061C16.6875 5.4492 16.5234 5.73045 16.5234 5.91795C16.5234 6.09373 16.5996 6.2285 17.5488 7.70506C18.0176 8.43163 18.3984 9.03514 18.3984 9.04686C18.3984 9.05858 17.1973 11.2383 15.7266 13.8926C14.2559 16.5469 12.4453 19.8223 11.7012 21.164L10.3477 23.6133H9.41601C8.69531 23.6133 8.49023 23.5957 8.51367 23.543C8.52539 23.5019 10.3359 20.2207 12.5273 16.2598L16.5117 9.05272L16.9922 9.02342L17.4668 8.99413L16.7754 7.92772L16.084 6.85545H12.9316C9.94922 6.85545 9.76758 6.86131 9.5625 6.96678C9.13476 7.18944 8.96484 7.47655 8.96484 7.99217C8.96484 8.23241 9 8.35545 9.11719 8.52538C9.23437 8.70116 9.25781 8.77733 9.21094 8.87108C9.18164 8.94139 7.24219 12.2695 4.90429 16.2715C2.56054 20.2793 0.609373 23.6308 0.556639 23.7246C0.363279 24.1113 0.533201 24.5566 0.91992 24.668C1.07812 24.7148 5.08594 24.7265 15.1055 24.7148L29.0742 24.6973L29.2207 24.5273C29.3379 24.3867 29.3613 24.3105 29.3437 24.0879C29.3262 23.8418 28.8691 23.1152 24.5625 16.4531C21.9492 12.3984 19.8047 9.0703 19.8047 9.05272C19.8047 9.03514 20.1328 9.02342 20.5312 9.02342C20.9355 9.02342 21.334 8.99413 21.4277 8.95897C21.6094 8.88866 21.8906 8.64256 21.9844 8.46678C22.3184 7.85155 21.9727 7.02538 21.2988 6.84373L21.041 6.77342L21.2109 6.46873C21.4512 6.05858 21.4512 5.73631 21.2168 5.50194C21.0059 5.291 20.7129 5.27342 20.4844 5.45506C20.4023 5.51952 20.1738 5.86522 19.9746 6.21678L19.6172 6.85545H18.9902H18.3633L17.9766 6.25194C17.7598 5.92381 17.5195 5.58983 17.4434 5.51952C17.2852 5.37303 17.0156 5.31444 16.834 5.39061ZM21.2754 7.44139C21.334 7.47655 21.4277 7.58202 21.4805 7.68163C21.7148 8.1328 21.2344 8.62498 20.7656 8.40233C20.4199 8.23827 20.3496 7.82811 20.6191 7.55272C20.8008 7.37108 21.0586 7.33006 21.2754 7.44139ZM12.1289 9.08202C12.1289 9.14647 4.2539 23.4082 4.14844 23.5371C4.07812 23.625 2.02734 23.6484 2.0625 23.5664C2.06836 23.5371 3.99023 20.2558 6.32812 16.2715L10.5762 9.02342H11.3496C11.8477 9.02342 12.1289 9.04686 12.1289 9.08202ZM15.2637 9.08202C15.2637 9.09959 13.459 12.375 11.2559 16.3652L7.24219 23.6133H6.31054C5.57812 23.6133 5.38476 23.5957 5.40234 23.5371C5.41992 23.4668 13.1484 9.46288 13.3418 9.15233C13.4238 9.02342 13.4414 9.02342 14.3437 9.03514C14.8477 9.04686 15.2637 9.06444 15.2637 9.08202ZM23.4668 16.875C25.8105 20.5019 27.7383 23.5019 27.7559 23.5371C27.7793 23.5957 27.1641 23.6133 24.791 23.6133H21.8027L21.7852 20.4023L21.7676 17.1973L21.6328 16.9863C21.3926 16.5937 21.3281 16.582 19.2598 16.582C17.4434 16.582 17.4199 16.582 17.2207 16.7168C16.8047 16.9922 16.8164 16.8926 16.8164 20.4316V23.6133H14.291C11.9062 23.6133 11.7656 23.6074 11.8066 23.5137C11.9062 23.25 19.1309 10.2539 19.1719 10.2656C19.1953 10.2773 21.1289 13.248 23.4668 16.875Z" fill="white" fill-opacity="0.65"/>
</g>
</g>
<defs>
<filter id="filter0_dd" x="-3.52356" y="5.33029" width="36.8725" height="27.3888" filterUnits="userSpaceOnUse" color-interpolation-filters="sRGB">
<feFlood flood-opacity="0" result="BackgroundImageFix"/>
<feColorMatrix in="SourceAlpha" type="matrix" values="0 0 0 0 0 0 0 0 0 0 0 0 0 0 0 0 0 0 127 0" result="hardAlpha"/>
<feOffset dy="4"/>
<feGaussianBlur stdDeviation="2"/>
<feComposite in2="hardAlpha" operator="out"/>
<feColorMatrix type="matrix" values="0 0 0 0 0 0 0 0 0 0 0 0 0 0 0 0 0 0 0.25 0"/>
<feBlend mode="normal" in2="BackgroundImageFix" result="effect1_dropShadow"/>
<feColorMatrix in="SourceAlpha" type="matrix" values="0 0 0 0 0 0 0 0 0 0 0 0 0 0 0 0 0 0 127 0" result="hardAlpha"/>
<feOffset dy="4"/>
<feGaussianBlur stdDeviation="2"/>
<feComposite in2="hardAlpha" operator="out"/>
<feColorMatrix type="matrix" values="0 0 0 0 0 0 0 0 0 0 0 0 0 0 0 0 0 0 0.25 0"/>
<feBlend mode="normal" in2="effect1_dropShadow" result="effect2_dropShadow"/>
<feBlend mode="normal" in="SourceGraphic" in2="effect2_dropShadow" result="shape"/>
</filter>
<clipPath id="clip0">
<rect width="30" height="30" fill="white"/>
</clipPath>
</defs>
</svg>
